<svg width="20" height="20" viewBox="0 0 20 20" fill="none" xmlns="http://www.w3.org/2000/svg">
<path d="M9.99967 0.833252C4.93967 0.833252 0.833008 4.93992 0.833008 9.99992C0.833008 15.0599 4.93967 19.1666 9.99967 19.1666C15.0597 19.1666 19.1663 15.0599 19.1663 9.99992C19.1663 4.93992 15.0597 0.833252 9.99967 0.833252ZM9.99967 17.3333C5.95717 17.3333 2.66634 14.0424 2.66634 9.99992C2.66634 5.95742 5.95717 2.66659 9.99967 2.66659C14.0422 2.66659 17.333 5.95742 17.333 9.99992C17.333 14.0424 14.0422 17.3333 9.99967 17.3333ZM14.2072 5.94825L8.16634 11.9891L5.79217 9.62409L4.49967 10.9166L8.16634 14.5833L15.4997 7.24992L14.2072 5.94825Z" fill="#4CAF50"/>
</svg>
