<svg width="25" height="25" viewBox="0 0 25 25" fill="none" xmlns="http://www.w3.org/2000/svg">
<path d="M19.1703 6.36133H8.73753C7.25813 6.36133 6.05884 7.56062 6.05884 9.04002V19.4728C6.05884 20.9522 7.25813 22.1515 8.73753 22.1515H19.1703C20.6497 22.1515 21.849 20.9522 21.849 19.4728V9.04002C21.849 7.56062 20.6497 6.36133 19.1703 6.36133Z" stroke="black" stroke-width="0.943577" stroke-linejoin="round"/>
<path d="M18.066 6.36211L18.0895 5.23424C18.0875 4.53688 17.8096 3.86865 17.3165 3.37554C16.8234 2.88243 16.1552 2.60452 15.4578 2.60254H5.30697C4.51001 2.60489 3.74637 2.92253 3.18284 3.48606C2.61931 4.0496 2.30167 4.81324 2.29932 5.61019V15.761C2.3013 16.4584 2.5792 17.1266 3.07231 17.6197C3.56542 18.1128 4.23365 18.3907 4.93101 18.3927H6.05888" stroke="black" stroke-width="0.943577" stroke-linecap="round" stroke-linejoin="round"/>
</svg>
