<svg width="23" height="23" viewBox="0 0 23 23" fill="none" xmlns="http://www.w3.org/2000/svg">
<path d="M12.8295 11.5C12.8295 12.2343 12.2343 12.8295 11.5 12.8295C10.7657 12.8295 10.1705 12.2343 10.1705 11.5C10.1705 10.7657 10.7657 10.1705 11.5 10.1705C12.2343 10.1705 12.8295 10.7657 12.8295 11.5Z" fill="black" stroke="black" stroke-width="0.215962" stroke-miterlimit="10"/>
<path d="M20.017 11.5C20.017 12.2343 19.4218 12.8295 18.6875 12.8295C17.9532 12.8295 17.358 12.2343 17.358 11.5C17.358 10.7657 17.9532 10.1705 18.6875 10.1705C19.4218 10.1705 20.017 10.7657 20.017 11.5Z" fill="black" stroke="black" stroke-width="0.215962" stroke-miterlimit="10"/>
<path d="M5.64202 11.5C5.64202 12.2343 5.04677 12.8295 4.3125 12.8295C3.57823 12.8295 2.98298 12.2343 2.98298 11.5C2.98298 10.7657 3.57823 10.1705 4.3125 10.1705C5.04677 10.1705 5.64202 10.7657 5.64202 11.5Z" fill="black" stroke="black" stroke-width="0.215962" stroke-miterlimit="10"/>
</svg>
