<svg width="50" height="50" viewBox="0 0 50 50" fill="none" xmlns="http://www.w3.org/2000/svg">
<path d="M25.6142 18.7803C24.3318 18.6536 23.0417 18.9264 21.9204 19.5614C20.7991 20.1963 19.9014 21.1622 19.3503 22.327C18.7992 23.4918 18.6216 24.7985 18.8419 26.0681C19.0621 27.3377 19.6693 28.5083 20.5805 29.4194C21.4917 30.3306 22.6622 30.9379 23.9318 31.1581C25.2014 31.3783 26.5081 31.2007 27.6729 30.6496C28.8377 30.0985 29.8037 29.2008 30.4386 28.0795C31.0735 26.9582 31.3463 25.6681 31.2197 24.3857C31.0753 22.9482 30.4383 21.6048 29.4167 20.5832C28.3951 19.5616 27.0517 18.9247 25.6142 18.7803ZM40.663 25C40.659 25.6794 40.6091 26.3577 40.5136 27.0303L44.9286 30.4932C45.1209 30.6525 45.2504 30.8749 45.2942 31.1207C45.338 31.3666 45.2933 31.62 45.1679 31.8359L40.9911 39.0625C40.8643 39.2764 40.666 39.4386 40.4313 39.5206C40.1965 39.6026 39.9404 39.5991 39.7079 39.5107L35.3232 37.7451C35.0814 37.6488 34.8195 37.6141 34.5609 37.6439C34.3024 37.6737 34.0553 37.7672 33.8417 37.916C33.1725 38.3768 32.4693 38.7862 31.7382 39.1406C31.5083 39.2523 31.3095 39.4189 31.1593 39.6257C31.0091 39.8325 30.9121 40.073 30.8769 40.3262L30.2197 45.0029C30.1765 45.2499 30.0489 45.4743 29.8586 45.6376C29.6684 45.8009 29.4274 45.8931 29.1767 45.8984H20.8232C20.5766 45.8942 20.3389 45.8061 20.1491 45.6486C19.9594 45.4911 19.8289 45.2737 19.7792 45.0322L19.123 40.3623C19.0861 40.1064 18.9866 39.8635 18.8333 39.6553C18.6799 39.4471 18.4775 39.2801 18.2441 39.1689C17.5138 38.8164 16.813 38.406 16.1484 37.9414C15.9356 37.7933 15.6893 37.7006 15.4317 37.6714C15.1741 37.6423 14.9133 37.6777 14.6728 37.7744L10.289 39.5391C10.0567 39.6275 9.80059 39.6312 9.56585 39.5494C9.33111 39.4675 9.13278 39.3055 9.00578 39.0918L4.82903 31.8652C4.70345 31.6493 4.65858 31.3959 4.70239 31.15C4.74621 30.9041 4.87586 30.6817 5.06828 30.5225L8.79973 27.5928C9.00416 27.4305 9.16483 27.2197 9.26715 26.9796C9.36947 26.7395 9.41021 26.4776 9.38567 26.2178C9.35051 25.8105 9.32903 25.4043 9.32903 24.9971C9.32903 24.5898 9.34953 24.1895 9.38567 23.791C9.40753 23.5327 9.36479 23.2731 9.26131 23.0354C9.15783 22.7978 8.99686 22.5896 8.79289 22.4297L5.0634 19.5C4.8741 19.3399 4.74718 19.1184 4.70486 18.8741C4.66254 18.6298 4.70754 18.3785 4.83195 18.1641L9.00871 10.9375C9.13555 10.7236 9.33382 10.5614 9.56858 10.4794C9.80333 10.3974 10.0595 10.4009 10.2919 10.4893L14.6767 12.2549C14.9185 12.3512 15.1804 12.3859 15.4389 12.3561C15.6975 12.3263 15.9446 12.2328 16.1581 12.084C16.8273 11.6232 17.5305 11.2138 18.2616 10.8594C18.4915 10.7477 18.6903 10.5811 18.8405 10.3743C18.9908 10.1675 19.0878 9.92696 19.123 9.67383L19.7802 4.99707C19.8234 4.75008 19.951 4.52575 20.1412 4.36241C20.3314 4.19907 20.5725 4.10687 20.8232 4.10156H29.1767C29.4232 4.10583 29.661 4.19395 29.8507 4.3514C30.0405 4.50885 30.1709 4.72625 30.2206 4.96777L30.8769 9.6377C30.9137 9.89362 31.0132 10.1365 31.1666 10.3447C31.3199 10.5529 31.5223 10.7199 31.7558 10.8311C32.486 11.1836 33.1869 11.594 33.8515 12.0586C34.0643 12.2067 34.3106 12.2994 34.5682 12.3286C34.8258 12.3577 35.0866 12.3223 35.3271 12.2256L39.7109 10.4609C39.9432 10.3725 40.1993 10.3688 40.434 10.4506C40.6687 10.5325 40.8671 10.6945 40.9941 10.9082L45.1708 18.1348C45.2964 18.3507 45.3413 18.6041 45.2975 18.85C45.2536 19.0959 45.124 19.3183 44.9316 19.4775L41.2001 22.4072C40.9948 22.569 40.8332 22.7795 40.73 23.0197C40.6268 23.2598 40.5853 23.5219 40.6093 23.7822C40.6415 24.1865 40.663 24.5928 40.663 25Z" stroke="black" stroke-width="2" stroke-linecap="round" stroke-linejoin="round"/>
</svg>
