<svg width="50" height="50" viewBox="0 0 50 50" fill="none" xmlns="http://www.w3.org/2000/svg">
<path d="M7.8125 20.7031V43.75C7.8125 44.1644 7.97712 44.5618 8.27015 44.8549C8.56317 45.1479 8.9606 45.3125 9.375 45.3125H18.75V32.0312C18.75 31.4096 18.9969 30.8135 19.4365 30.374C19.876 29.9344 20.4721 29.6875 21.0938 29.6875H28.9062C29.5279 29.6875 30.124 29.9344 30.5635 30.374C31.0031 30.8135 31.25 31.4096 31.25 32.0312V45.3125H40.625C41.0394 45.3125 41.4368 45.1479 41.7299 44.8549C42.0229 44.5618 42.1875 44.1644 42.1875 43.75V20.7031" stroke="black" stroke-width="2" stroke-linecap="round" stroke-linejoin="round"/>
<path d="M46.875 25L26.0635 5.07813C25.5752 4.5625 24.4336 4.55664 23.9365 5.07813L3.125 25M39.0625 17.4805V6.25H34.375V12.9883" stroke="black" stroke-width="2" stroke-linecap="round" stroke-linejoin="round"/>
</svg>
