<svg width="39" height="36" viewBox="0 0 39 36" fill="none" xmlns="http://www.w3.org/2000/svg">
<path d="M37.6605 16.6483L21.0827 2.03796C20.3757 1.38871 19.3202 1.38871 18.6133 2.03796L2.03548 16.6483C1.62857 17.022 4.84797 15.0058 4.84797 15.5733V32.3925C4.84797 33.4795 5.68744 34.3606 6.72297 34.3606H14.223C15.2585 34.3606 16.098 33.4795 16.098 32.3925V24.5204C16.098 23.4335 16.9374 22.5524 17.973 22.5524H21.723C22.7585 22.5524 23.598 23.4335 23.598 24.5204V32.3925C23.598 33.4795 24.4374 34.3606 25.473 34.3606H32.973C34.0085 34.3606 34.848 33.4795 34.848 32.3925V15.5733C34.848 15.0058 38.0674 17.022 37.6605 16.6483Z" stroke="currentColor" stroke-width="2.29008" stroke-linecap="round" stroke-linejoin="round"/>
</svg>
