<svg width="22" height="19" viewBox="0 0 22 19" fill="none" xmlns="http://www.w3.org/2000/svg">
<path d="M18.8531 1H3.32867C2.04258 1 1 2.04258 1 3.32867V15.7482C1 17.0343 2.04258 18.0769 3.32867 18.0769H18.8531C20.1392 18.0769 21.1818 17.0343 21.1818 15.7482V3.32867C21.1818 2.04258 20.1392 1 18.8531 1Z" stroke="black" stroke-linejoin="round"/>
<path d="M14.9719 7.20978C15.8293 7.20978 16.5243 6.51473 16.5243 5.65733C16.5243 4.79994 15.8293 4.10489 14.9719 4.10489C14.1145 4.10489 13.4194 4.79994 13.4194 5.65733C13.4194 6.51473 14.1145 7.20978 14.9719 7.20978Z" stroke="black" stroke-miterlimit="10"/>
<path d="M13.4196 13.4094L9.02129 9.01934C8.74141 8.73952 8.36524 8.57716 7.96965 8.56544C7.57407 8.55372 7.18894 8.69352 6.89299 8.95627L1 14.1958M9.53845 18.0769L15.5222 12.0932C15.7958 11.819 16.1621 11.657 16.5491 11.639C16.936 11.6211 17.3157 11.7485 17.6136 11.9961L21.1818 14.972" stroke="black" stroke-linecap="round" stroke-linejoin="round"/>
</svg>
