<svg width="50" height="50" viewBox="0 0 50 50" fill="none" xmlns="http://www.w3.org/2000/svg">
<path d="M25 7.8125C21.6006 7.8125 18.2776 8.82053 15.4511 10.7091C12.6247 12.5977 10.4217 15.282 9.12083 18.4226C7.81995 21.5632 7.47958 25.0191 8.14276 28.3531C8.80594 31.6872 10.4429 34.7497 12.8466 37.1534C15.2503 39.5571 18.3128 41.1941 21.6469 41.8572C24.9809 42.5204 28.4368 42.1801 31.5774 40.8792C34.718 39.5783 37.4023 37.3753 39.2909 34.5489C41.1795 31.7224 42.1875 28.3994 42.1875 25C42.1875 20.4416 40.3767 16.0699 37.1534 12.8466C33.9301 9.62332 29.5584 7.8125 25 7.8125Z" stroke="black" stroke-width="1.5" stroke-miterlimit="10"/>
<path d="M19.5312 19.7549C19.5312 19.7549 19.6133 18.0459 21.4424 16.5742C22.5273 15.7002 23.8281 15.4473 25 15.4297C26.0674 15.416 27.0205 15.5928 27.5908 15.8643C28.5674 16.3291 30.4688 17.4639 30.4688 19.877C30.4688 22.416 28.8086 23.5693 26.917 24.8379C25.0254 26.1064 24.5117 27.4834 24.5117 28.9062" stroke="black" stroke-width="1.5" stroke-miterlimit="10" stroke-linecap="round"/>
<path d="M24.4141 35.9375C25.4927 35.9375 26.3672 35.0631 26.3672 33.9844C26.3672 32.9057 25.4927 32.0312 24.4141 32.0312C23.3354 32.0312 22.4609 32.9057 22.4609 33.9844C22.4609 35.0631 23.3354 35.9375 24.4141 35.9375Z" fill="black"/>
</svg>
