<svg width="23" height="23" viewBox="0 0 23 23" fill="none" xmlns="http://www.w3.org/2000/svg">
<g clip-path="url(#clip0_612_16363)">
<path d="M11.5 1.09705C9.4425 1.09705 7.43119 1.70717 5.72044 2.85026C4.00968 3.99335 2.6763 5.61807 1.88893 7.51897C1.10155 9.41986 0.89554 11.5115 1.29694 13.5295C1.69834 15.5475 2.68913 17.4011 4.14401 18.856C5.59889 20.3109 7.45252 21.3017 9.47049 21.7031C11.4885 22.1045 13.5802 21.8985 15.4811 21.1111C17.3819 20.3237 19.0067 18.9903 20.1498 17.2796C21.2928 15.5688 21.903 13.5575 21.903 11.5C21.903 8.74097 20.8069 6.09494 18.856 4.144C16.9051 2.19307 14.259 1.09705 11.5 1.09705Z" stroke="black" stroke-miterlimit="10"/>
<path d="M8.18994 8.32533C8.18994 8.32533 8.23959 7.29095 9.34668 6.40019C10.0034 5.87118 10.7907 5.71809 11.5 5.70745C12.146 5.69917 12.7229 5.80616 13.0681 5.97048C13.6592 6.25183 14.81 6.93866 14.81 8.39921C14.81 9.93602 13.8052 10.6341 12.6603 11.4019C11.5153 12.1697 11.2044 13.0031 11.2044 13.8643" stroke="black" stroke-miterlimit="10" stroke-linecap="round"/>
<path d="M11.1454 18.1201C11.7983 18.1201 12.3276 17.5908 12.3276 16.9379C12.3276 16.285 11.7983 15.7558 11.1454 15.7558C10.4925 15.7558 9.96326 16.285 9.96326 16.9379C9.96326 17.5908 10.4925 18.1201 11.1454 18.1201Z" fill="black"/>
</g>
<defs>
<clipPath id="clip0_612_16363">
<rect width="23" height="23" fill="white"/>
</clipPath>
</defs>
</svg>
