<svg width="40" height="39" viewBox="0 0 40 39" fill="none" xmlns="http://www.w3.org/2000/svg">
<path d="M19.855 0C9.10445 0 0.348022 8.75952 0.348022 19.5139C0.348022 30.2683 9.10445 39 19.855 39C30.6055 39 39.348 30.2676 39.348 19.5139C39.348 8.75952 30.6055 0 19.855 0ZM19.855 2.60015C29.2011 2.60015 36.7488 10.1648 36.7488 19.5133C36.7488 28.8625 29.2005 36.4002 19.855 36.4002C10.5089 36.4002 2.96118 28.8628 2.96118 19.5133C2.96118 10.1641 10.5095 2.60015 19.855 2.60015ZM19.8414 10.8064C19.4944 10.81 19.1631 10.9521 18.9216 11.2015C18.68 11.4508 18.548 11.7864 18.5552 12.1334V18.1999H12.4908C12.4457 18.1975 12.4004 18.1978 12.3554 18.2002C11.8911 18.2244 11.4748 18.4943 11.2639 18.9087C11.0526 19.3231 11.0783 19.8185 11.3316 20.2088C11.5846 20.5987 12.0265 20.8242 12.4908 20.8H18.5552V26.8668C18.5504 27.2148 18.6852 27.5503 18.9294 27.7978C19.1736 28.0457 19.507 28.1853 19.855 28.1853C20.2026 28.1853 20.536 28.0457 20.7802 27.7978C21.0244 27.5503 21.1593 27.2147 21.1544 26.8668V20.8003H27.2188C27.5667 20.8052 27.902 20.67 28.1495 20.4258C28.3974 20.1816 28.5367 19.8482 28.5367 19.5C28.5367 19.152 28.3974 18.8186 28.1495 18.5744C27.9019 18.3302 27.5667 18.1954 27.2188 18.2002H21.1544V12.1334C21.1617 11.7815 21.0263 11.4418 20.7787 11.1918C20.5311 10.9418 20.1929 10.8028 19.8414 10.8064Z" fill="currentColor"/>
</svg>
