<svg width="40" height="38" viewBox="0 0 40 38" xmlns="http://www.w3.org/2000/svg">
<path fill-rule="evenodd" clip-rule="evenodd" d="M4.01538 0.666664C2.10583 0.666664 0.666664 2.27229 0.666664 4.11538V6.23071V6.23077V33.7307C0.666664 35.5738 2.10582 37.1794 4.01539 37.1794H36.2615C38.1711 37.1794 39.6102 35.5738 39.6102 33.7307V8.3461C39.6102 6.503 38.1711 4.89737 36.2615 4.89737H20.7097L17.6633 1.69986L17.6633 1.69981C17.0408 1.04652 16.1825 0.666664 15.2729 0.666664H4.01538ZM20.1256 7.56404C20.1343 7.56413 20.1431 7.56413 20.1518 7.56404H36.2615C36.5781 7.56404 36.9436 7.85259 36.9436 8.3461V33.7307C36.9436 34.2242 36.5781 34.5128 36.2615 34.5128H4.01539C3.69882 34.5128 3.33333 34.2242 3.33333 33.7307V7.56404H20.1256ZM17.0265 4.89737L15.7327 3.53935C15.5992 3.39921 15.4323 3.33333 15.2729 3.33333H4.01538C3.69881 3.33333 3.33333 3.62189 3.33333 4.11538V4.89737H17.0265Z" fill="currentColor"/>
</svg>
