<svg width="46" height="38" viewBox="0 0 46 38" fill="none" xmlns="http://www.w3.org/2000/svg">
<path d="M1.125 12.75H44.875M40.9688 36.1875H5.03125C3.99525 36.1875 3.00168 35.7759 2.26911 35.0434C1.53655 34.3108 1.125 33.3173 1.125 32.2812V5.71875C1.125 4.68275 1.53655 3.68918 2.26911 2.95661C3.00168 2.22405 3.99525 1.8125 5.03125 1.8125H12.4424C13.2137 1.81252 13.9677 2.04086 14.6094 2.46875L17.3281 4.28125C17.9698 4.70914 18.7238 4.93748 19.4951 4.9375H40.9688C42.0048 4.9375 42.9983 5.34905 43.7309 6.08161C44.4634 6.81418 44.875 7.80775 44.875 8.84375V32.2812C44.875 33.3173 44.4634 34.3108 43.7309 35.0434C42.9983 35.7759 42.0048 36.1875 40.9688 36.1875Z" stroke="black" stroke-width="2" stroke-linecap="round" stroke-linejoin="round"/>
</svg>
