<svg width="26" height="26" viewBox="0 0 26 26" fill="none" xmlns="http://www.w3.org/2000/svg">
<path d="M13.0003 25.2727H13C9.74504 25.2727 6.62349 23.9797 4.32194 21.6781C2.02028 19.3766 0.727275 16.2549 0.727275 13C0.727275 9.74512 2.02028 6.6235 4.32192 4.32194C4.32193 4.32193 4.32193 4.32193 4.32193 4.32193M13.0003 25.2727L21.4852 4.51478C19.2348 2.26428 16.1825 1 13 1C9.81745 1 6.7651 2.26428 4.51477 4.51478L4.32193 4.32193M13.0003 25.2727C16.2538 25.269 19.3736 23.9745 21.6741 21.6738C23.9748 19.3736 25.269 16.2539 25.2727 13.0003V13C25.2727 9.74513 23.9797 6.62341 21.6781 4.32193M13.0003 25.2727L21.6781 4.32193M4.32193 4.32193C6.62341 2.02028 9.74513 0.727275 13 0.727275C16.2549 0.727275 19.3765 2.02029 21.6781 4.32193M4.32193 4.32193L21.6781 4.32193M2.38075 13C2.38075 10.1838 3.49963 7.48263 5.49105 5.49104L5.49105 5.49104C7.48244 3.49961 10.1835 2.38077 12.9999 2.38075C15.8153 2.3839 18.5145 3.50356 20.5053 5.49447C22.4963 7.48553 23.6162 10.1847 23.6193 13.0003C23.6192 15.8164 22.5003 18.5174 20.509 20.509C18.5175 22.5004 15.8162 23.6193 13 23.6193C10.1838 23.6193 7.48263 22.5004 5.49104 20.509C3.49959 18.5175 2.38075 15.8162 2.38075 13Z" fill="black" stroke="black" stroke-width="0.545451"/>
</svg>
