<svg width="30" height="30" viewBox="0 0 50 50" fill="none" xmlns="http://www.w3.org/2000/svg">
<path d="M31.25 14.2578C31.25 14.2578 33.6289 13.0859 25 13.0859C21.9097 13.0859 18.8887 14.0023 16.3192 15.7192C13.7497 17.4361 11.747 19.8764 10.5644 22.7315C9.38177 25.5866 9.07234 28.7283 9.67524 31.7592C10.2781 34.7902 11.7663 37.5743 13.9515 39.7595C16.1367 41.9447 18.9208 43.4328 21.9517 44.0357C24.9827 44.6386 28.1243 44.3292 30.9794 43.1466C33.8345 41.9639 36.2748 39.9612 37.9917 37.3917C39.7086 34.8222 40.625 31.8013 40.625 28.7109" stroke="black" stroke-width="2" stroke-miterlimit="10" stroke-linecap="round"/>
<path d="M25 5.66406L32.8125 13.4766L25 21.2891" stroke="black" stroke-width="2" stroke-linecap="round" stroke-linejoin="round"/>
</svg>
