<svg width="17" height="17" viewBox="0 0 17 17" fill="currentColor" xmlns="http://www.w3.org/2000/svg">
<path d="M8.50004 16.1667C6.35976 16.1667 4.54692 15.424 3.0615 13.9385C1.57608 12.4531 0.833374 10.6403 0.833374 8.5C0.833374 6.35973 1.57608 4.54688 3.0615 3.06146C4.54692 1.57604 6.35976 0.833336 8.50004 0.833336C9.60212 0.833336 10.6563 1.0611 11.6625 1.51663C12.6688 1.97152 13.5313 2.62222 14.25 3.46875V1.79167C14.25 1.52014 14.342 1.29238 14.526 1.10838C14.7094 0.925017 14.9368 0.833336 15.2084 0.833336C15.4799 0.833336 15.7073 0.925017 15.8907 1.10838C16.0747 1.29238 16.1667 1.52014 16.1667 1.79167V6.58334C16.1667 6.85486 16.0747 7.08231 15.8907 7.26567C15.7073 7.44967 15.4799 7.54167 15.2084 7.54167H10.4167C10.1452 7.54167 9.91774 7.44967 9.73438 7.26567C9.55038 7.08231 9.45837 6.85486 9.45837 6.58334C9.45837 6.31181 9.55038 6.08404 9.73438 5.90004C9.91774 5.71668 10.1452 5.625 10.4167 5.625H13.4834C12.9723 4.73056 12.2736 4.02778 11.3875 3.51667C10.5007 3.00556 9.53824 2.75 8.50004 2.75C6.90282 2.75 5.54518 3.30903 4.42712 4.42709C3.30907 5.54514 2.75004 6.90278 2.75004 8.5C2.75004 10.0972 3.30907 11.4549 4.42712 12.5729C5.54518 13.691 6.90282 14.25 8.50004 14.25C9.60212 14.25 10.6205 13.9584 11.5552 13.375C12.4893 12.7924 13.1879 12.0139 13.6511 11.0396C13.7309 10.8639 13.8629 10.7163 14.0469 10.5968C14.2302 10.4767 14.4178 10.4167 14.6094 10.4167C14.9768 10.4167 15.2525 10.5444 15.4365 10.8C15.6198 11.0556 15.6396 11.3431 15.4959 11.6625C14.8889 13.0201 13.9546 14.1101 12.6928 14.9323C11.4309 15.7552 10.0334 16.1667 8.50004 16.1667Z" fill="#453E3D"/>
</svg>
