<svg width="44" height="44" viewBox="0 0 44 44" fill="none" xmlns="http://www.w3.org/2000/svg">
<path d="M34.2002 2.60254C33.91 2.31237 33.5654 2.08221 33.1862 1.92521C32.807 1.76821 32.4006 1.68743 31.9902 1.6875H6.20117C5.60839 1.68737 5.02139 1.80403 4.47371 2.03082C3.92603 2.25761 3.4284 2.59008 3.00924 3.00924C2.59008 3.4284 2.25761 3.92603 2.03082 4.47371C1.80403 5.02139 1.68737 5.60839 1.6875 6.20117V37.7988C1.68737 38.3916 1.80403 38.9786 2.03082 39.5263C2.25761 40.074 2.59008 40.5716 3.00924 40.9908C3.4284 41.4099 3.92603 41.7424 4.47371 41.9692C5.02139 42.196 5.60839 42.3126 6.20117 42.3125H37.7988C38.9948 42.3089 40.1408 41.8322 40.9865 40.9865C41.8322 40.1408 42.3089 38.9948 42.3125 37.7988V12.0098C42.3126 11.5994 42.2318 11.193 42.0748 10.8138C41.9178 10.4346 41.6876 10.09 41.3975 9.79981L34.2002 2.60254ZM22 37.625C20.7639 37.625 19.5555 37.2584 18.5277 36.5717C17.4999 35.8849 16.6988 34.9088 16.2258 33.7668C15.7527 32.6247 15.6289 31.3681 15.8701 30.1557C16.1112 28.9433 16.7065 27.8297 17.5806 26.9556C18.4547 26.0815 19.5683 25.4862 20.7807 25.2451C21.9931 25.0039 23.2497 25.1277 24.3918 25.6008C25.5338 26.0738 26.5099 26.8749 27.1967 27.9027C27.8834 28.9305 28.25 30.1389 28.25 31.375C28.251 32.1961 28.0901 33.0092 27.7763 33.768C27.4626 34.5267 27.0023 35.2161 26.4217 35.7967C25.8411 36.3773 25.1517 36.8376 24.393 37.1513C23.6342 37.4651 22.8211 37.626 22 37.625ZM26.6875 15.75H7.9375C7.5231 15.75 7.12567 15.5854 6.83265 15.2924C6.53962 14.9993 6.375 14.6019 6.375 14.1875V7.9375C6.375 7.5231 6.53962 7.12567 6.83265 6.83265C7.12567 6.53962 7.5231 6.375 7.9375 6.375H26.6875C27.1019 6.375 27.4993 6.53962 27.7924 6.83265C28.0854 7.12567 28.25 7.5231 28.25 7.9375V14.1875C28.25 14.6019 28.0854 14.9993 27.7924 15.2924C27.4993 15.5854 27.1019 15.75 26.6875 15.75Z" stroke="black" stroke-width="2" stroke-linecap="round" stroke-linejoin="round"/>
</svg>
