<svg xmlns="http://www.w3.org/2000/svg" fill="none" viewBox="3.2 2.63 19.75 19.75">
<path d="M11.3754 3.125C9.85831 3.125 8.37531 3.57486 7.11392 4.4177C5.85253 5.26053 4.86939 6.45849 4.28883 7.86007C3.70828 9.26166 3.55638 10.8039 3.85234 12.2918C4.14831 13.7797 4.87884 15.1465 5.95157 16.2192C7.0243 17.2919 8.39103 18.0225 9.87895 18.3184C11.3669 18.6144 12.9091 18.4625 14.3107 17.8819C15.7123 17.3014 16.9102 16.3183 17.7531 15.0569C18.5959 13.7955 19.0458 12.3125 19.0458 10.7954C19.0456 8.76113 18.2375 6.81021 16.799 5.37175C15.3606 3.9333 13.4096 3.12513 11.3754 3.125Z" stroke="black" stroke-miterlimit="10"/>
<path d="M17.098 16.5181L22.455 21.875" stroke="black" stroke-miterlimit="10" stroke-linecap="round"/>
</svg>