<svg width="27" height="27" viewBox="0 0 27 27" fill="none" xmlns="http://www.w3.org/2000/svg">
<path d="M5.74561 6.35742L6.76382 22.6489C6.81219 23.5902 7.49694 24.278 8.39297 24.278H17.7606C18.6601 24.278 19.3322 23.5902 19.3897 22.6489L20.4079 6.35742" stroke="black" stroke-width="1.04265" stroke-linecap="round" stroke-linejoin="round"/>
<path d="M4.11646 6.35742H22.0371H4.11646Z" fill="black"/>
<path d="M4.11646 6.35742H22.0371" stroke="black" stroke-width="1.04265" stroke-miterlimit="10" stroke-linecap="round"/>
<path d="M9.81842 6.3579V4.32147C9.81795 4.16088 9.84923 4.00179 9.91047 3.85333C9.97171 3.70488 10.0617 3.56999 10.1752 3.45644C10.2888 3.34289 10.4237 3.2529 10.5721 3.19166C10.7206 3.13043 10.8797 3.09914 11.0403 3.09961H15.1131C15.2737 3.09914 15.4328 3.13043 15.5813 3.19166C15.7297 3.2529 15.8646 3.34289 15.9782 3.45644C16.0917 3.56999 16.1817 3.70488 16.243 3.85333C16.3042 4.00179 16.3355 4.16088 16.335 4.32147V6.3579M13.0767 9.6162V21.0202M9.41113 9.6162L9.81842 21.0202M16.7423 9.6162L16.335 21.0202" stroke="black" stroke-width="1.04265" stroke-linecap="round" stroke-linejoin="round"/>
</svg>
