<svg width="32" height="32" viewBox="0 0 32 32" fill="none" xmlns="http://www.w3.org/2000/svg">
<path fill-rule="evenodd" clip-rule="evenodd" d="M2.63988 5.5701L4.50098 3.709L26.9002 26.1082L25.0391 27.9693L15.694 18.6242C13.3445 18.6506 11.0214 19.5614 9.23953 21.3433L6.59967 18.7034C8.27598 17.0403 10.2823 15.9184 12.4206 15.3508L9.46391 12.3941C7.45762 13.2125 5.58332 14.44 3.95981 16.0635L1.31995 13.4237C2.93026 11.8266 4.73857 10.5594 6.66566 9.59589L2.63988 5.5701ZM30.3584 13.4237L27.7185 16.0635C24.4055 12.7505 20.0365 11.1138 15.6808 11.1402L12.2753 7.73479C18.6506 6.62605 25.4351 8.50035 30.3584 13.4237ZM20.1685 15.628C21.9636 16.2615 23.6531 17.2779 25.0786 18.7034L24.1547 19.6142L20.1685 15.628ZM11.8794 23.9831L15.8392 27.9429L19.799 23.9831C17.6211 21.792 14.0705 21.792 11.8794 23.9831Z" fill="black"/>
</svg>
