<svg width="94" height="94" viewBox="0 0 94 94" fill="none" xmlns="http://www.w3.org/2000/svg">
<path d="M52.4337 47C52.4337 50.0009 50.0009 52.4337 47 52.4337C43.9991 52.4337 41.5663 50.0009 41.5663 47C41.5663 43.9991 43.9991 41.5663 47 41.5663C50.0009 41.5663 52.4337 43.9991 52.4337 47Z" fill="black" stroke="black" stroke-width="0.882629" stroke-miterlimit="10"/>
<path d="M81.8087 47C81.8087 50.0009 79.3759 52.4337 76.375 52.4337C73.3741 52.4337 70.9413 50.0009 70.9413 47C70.9413 43.9991 73.3741 41.5663 76.375 41.5663C79.3759 41.5663 81.8087 43.9991 81.8087 47Z" fill="black" stroke="black" stroke-width="0.882629" stroke-miterlimit="10"/>
<path d="M23.0587 47C23.0587 50.0009 20.6259 52.4337 17.625 52.4337C14.6241 52.4337 12.1913 50.0009 12.1913 47C12.1913 43.9991 14.6241 41.5663 17.625 41.5663C20.6259 41.5663 23.0587 43.9991 23.0587 47Z" fill="black" stroke="black" stroke-width="0.882629" stroke-miterlimit="10"/>
</svg>
