<svg width="40" height="40" viewBox="0 0 40 40" fill="none" xmlns="http://www.w3.org/2000/svg">
<g clip-path="url(#clip0_478_16438)">
<path d="M38.75 20C38.75 9.64844 30.3516 1.25 20 1.25C9.64844 1.25 1.25 9.64844 1.25 20C1.25 30.3516 9.64844 38.75 20 38.75C30.3516 38.75 38.75 30.3516 38.75 20Z" stroke="#D83131" stroke-width="2" stroke-miterlimit="10"/>
<path d="M19.4395 11.2158L20.0001 23.125L20.5597 11.2158C20.5631 11.1397 20.551 11.0636 20.5241 10.9924C20.4972 10.9211 20.456 10.856 20.4031 10.8012C20.3501 10.7463 20.2866 10.7028 20.2163 10.6734C20.146 10.6439 20.0704 10.6291 19.9942 10.6299C19.9189 10.6306 19.8445 10.6465 19.7755 10.6766C19.7065 10.7067 19.6442 10.7504 19.5924 10.805C19.5407 10.8597 19.5004 10.9243 19.4742 10.9949C19.4479 11.0654 19.4361 11.1406 19.4395 11.2158Z" stroke="#D83131" stroke-width="2" stroke-linecap="round" stroke-linejoin="round"/>
<path d="M20 30.9287C19.6137 30.9287 19.2361 30.8142 18.9149 30.5995C18.5937 30.3849 18.3434 30.0799 18.1955 29.723C18.0477 29.3661 18.009 28.9734 18.0844 28.5945C18.1598 28.2157 18.3458 27.8677 18.6189 27.5945C18.8921 27.3214 19.2401 27.1353 19.619 27.06C19.9978 26.9846 20.3905 27.0233 20.7474 27.1711C21.1043 27.319 21.4094 27.5693 21.624 27.8905C21.8386 28.2117 21.9531 28.5893 21.9531 28.9756C21.9531 29.4936 21.7474 29.9904 21.3811 30.3567C21.0148 30.7229 20.518 30.9287 20 30.9287Z" fill="#D83131"/>
</g>
<defs>
<clipPath id="clip0_478_16438">
<rect width="40" height="40" fill="white"/>
</clipPath>
</defs>
</svg>
