<svg width="27" height="27" viewBox="0 0 27 27" fill="none" xmlns="http://www.w3.org/2000/svg">
<path d="M17.1417 8.98633H19.1781C19.7182 8.98633 20.2362 9.20088 20.6181 9.58279C21 9.96469 21.2145 10.4827 21.2145 11.0228V21.6122C21.2145 22.1523 21 22.6703 20.6181 23.0522C20.2362 23.4341 19.7182 23.6486 19.1781 23.6486H6.95953C6.41943 23.6486 5.90146 23.4341 5.51955 23.0522C5.13765 22.6703 4.9231 22.1523 4.9231 21.6122V11.0228C4.9231 10.4827 5.13765 9.96469 5.51955 9.58279C5.90146 9.20088 6.41943 8.98633 6.95953 8.98633H8.99596" stroke="black" stroke-width="1.04265" stroke-linecap="round" stroke-linejoin="round"/>
<path d="M8.99585 13.8737L13.0687 17.9466L17.1416 13.8737M13.0687 2.46973V17.132" stroke="black" stroke-width="1.04265" stroke-linecap="round" stroke-linejoin="round"/>
</svg>
