<svg width="23" height="23" viewBox="0 0 23 23" fill="none" xmlns="http://www.w3.org/2000/svg">
<g clip-path="url(#clip0_612_16367)">
<path d="M11.8071 8.39014C11.1659 8.32681 10.5208 8.46322 9.96019 8.78068C9.39954 9.09813 8.95072 9.58112 8.67517 10.1635C8.39962 10.7459 8.31082 11.3992 8.42093 12.0341C8.53103 12.6689 8.83466 13.2541 9.29025 13.7097C9.74583 14.1653 10.3311 14.4689 10.9659 14.579C11.6007 14.6891 12.254 14.6003 12.8364 14.3248C13.4188 14.0492 13.9018 13.6004 14.2193 13.0398C14.5367 12.4791 14.6731 11.834 14.6098 11.1929C14.5376 10.4741 14.2192 9.80241 13.7084 9.29161C13.1976 8.78081 12.5259 8.46233 11.8071 8.39014ZM19.3315 11.5C19.3295 11.8397 19.3045 12.1788 19.2568 12.5151L21.4643 14.2466C21.5604 14.3263 21.6252 14.4374 21.6471 14.5604C21.669 14.6833 21.6466 14.81 21.5839 14.918L19.4956 18.5312C19.4321 18.6382 19.333 18.7193 19.2156 18.7603C19.0983 18.8013 18.9702 18.7996 18.854 18.7554L16.6616 17.8726C16.5407 17.8244 16.4097 17.807 16.2805 17.8219C16.1512 17.8369 16.0276 17.8836 15.9209 17.958C15.5863 18.1884 15.2347 18.3931 14.8691 18.5703C14.7542 18.6262 14.6548 18.7095 14.5797 18.8129C14.5045 18.9162 14.456 19.0365 14.4384 19.1631L14.1098 21.5015C14.0882 21.625 14.0244 21.7371 13.9293 21.8188C13.8342 21.9005 13.7137 21.9466 13.5883 21.9492H9.41158C9.28831 21.9471 9.16944 21.903 9.07456 21.8243C8.97968 21.7456 8.91445 21.6369 8.88961 21.5161L8.56149 19.1812C8.54306 19.0532 8.4933 18.9318 8.41663 18.8277C8.33997 18.7236 8.23877 18.64 8.12203 18.5845C7.7569 18.4082 7.40649 18.203 7.07418 17.9707C6.96778 17.8967 6.84463 17.8503 6.71584 17.8357C6.58704 17.8211 6.45664 17.8388 6.33639 17.8872L4.14449 18.7695C4.02834 18.8138 3.90029 18.8156 3.78292 18.7747C3.66556 18.7338 3.56639 18.6528 3.50289 18.5459L1.41451 14.9326C1.35173 14.8247 1.32929 14.6979 1.3512 14.575C1.3731 14.452 1.43793 14.3409 1.53414 14.2612L3.39986 12.7964C3.50208 12.7152 3.58241 12.6099 3.63357 12.4898C3.68474 12.3697 3.7051 12.2388 3.69283 12.1089C3.67525 11.9053 3.66451 11.7021 3.66451 11.4985C3.66451 11.2949 3.67477 11.0947 3.69283 10.8955C3.70376 10.7664 3.6824 10.6365 3.63066 10.5177C3.57892 10.3989 3.49843 10.2948 3.39645 10.2148L1.5317 8.75C1.43705 8.66997 1.37359 8.55918 1.35243 8.43705C1.33127 8.31492 1.35377 8.18924 1.41598 8.08203L3.50436 4.46875C3.56778 4.36181 3.66691 4.28069 3.78429 4.23969C3.90166 4.19869 4.02975 4.20044 4.14596 4.24463L6.33834 5.12744C6.45924 5.17558 6.5902 5.19297 6.71947 5.17806C6.84874 5.16314 6.9723 5.11639 7.07906 5.04199C7.41366 4.81158 7.76525 4.60689 8.13082 4.42969C8.24575 4.37383 8.34516 4.29053 8.42027 4.18715C8.49538 4.08377 8.54388 3.96348 8.56149 3.83691L8.8901 1.49854C8.91168 1.37504 8.97548 1.26287 9.0706 1.1812C9.16572 1.09954 9.28624 1.05344 9.41158 1.05078H13.5883C13.7116 1.05291 13.8305 1.09697 13.9254 1.1757C14.0202 1.25443 14.0855 1.36313 14.1103 1.48389L14.4384 3.81885C14.4569 3.94681 14.5066 4.06824 14.5833 4.17233C14.66 4.27643 14.7612 4.35997 14.8779 4.41553C15.243 4.59178 15.5934 4.79702 15.9257 5.0293C16.0321 5.10333 16.1553 5.14972 16.2841 5.1643C16.4129 5.17887 16.5433 5.16117 16.6635 5.11279L18.8554 4.23047C18.9716 4.18624 19.0996 4.18441 19.217 4.22532C19.3344 4.26623 19.4335 4.34725 19.497 4.4541L21.5854 8.06738C21.6482 8.17534 21.6706 8.30207 21.6487 8.42502C21.6268 8.54796 21.562 8.65915 21.4658 8.73877L19.6001 10.2036C19.4974 10.2845 19.4166 10.3898 19.365 10.5098C19.3134 10.6299 19.2927 10.761 19.3046 10.8911C19.3208 11.0933 19.3315 11.2964 19.3315 11.5Z" stroke="black" stroke-linecap="round" stroke-linejoin="round"/>
</g>
<defs>
<clipPath id="clip0_612_16367">
<rect width="23" height="23" fill="white"/>
</clipPath>
</defs>
</svg>
